<svg width="24" height="24" viewBox="0 0 24 24" fill="none" xmlns="http://www.w3.org/2000/svg">
<g id="ic_search">
<path id="Vector" d="M10.0043 2.00001C11.3026 2.0014 12.5749 2.36381 13.679 3.04676C14.7832 3.7297 15.6756 4.70625 16.2567 5.86727C16.8377 7.02829 17.0844 8.32801 16.9692 9.62118C16.854 10.9143 16.3814 12.15 15.6043 13.19L21.7143 19.29C21.808 19.383 21.8824 19.4936 21.9332 19.6154C21.9839 19.7373 22.0101 19.868 22.0101 20C22.0101 20.132 21.9839 20.2627 21.9332 20.3846C21.8824 20.5064 21.808 20.617 21.7143 20.71C21.6213 20.8037 21.5107 20.8781 21.3888 20.9289C21.267 20.9797 21.1363 21.0058 21.0043 21.0058C20.8723 21.0058 20.7416 20.9797 20.6197 20.9289C20.4978 20.8781 20.3872 20.8037 20.2943 20.71L14.1943 14.6C13.3066 15.2658 12.2734 15.7109 11.1798 15.8989C10.0863 16.0868 8.96371 16.0121 7.90472 15.6808C6.84572 15.3496 5.88063 14.7714 5.08905 13.9939C4.29746 13.2163 3.70205 12.2617 3.35192 11.2088C3.00179 10.156 2.90697 9.03491 3.07529 7.93816C3.2436 6.84142 3.67022 5.8004 4.31997 4.90095C4.96972 4.0015 5.82398 3.2694 6.8123 2.76502C7.80062 2.26064 8.89469 1.99842 10.0043 2.00001ZM10.0043 14C10.9932 14 11.9599 13.7068 12.7821 13.1574C13.6044 12.6079 14.2452 11.8271 14.6237 10.9134C15.0021 9.99979 15.1011 8.99446 14.9082 8.02456C14.7153 7.05465 14.2391 6.16374 13.5398 5.46447C12.8405 4.76521 11.9496 4.28901 10.9797 4.09608C10.0098 3.90315 9.00449 4.00217 8.09085 4.38061C7.17722 4.75905 6.39633 5.39991 5.84692 6.22216C5.29752 7.0444 5.00427 8.0111 5.00427 9.00001C5.00427 9.65662 5.1336 10.3068 5.38487 10.9134C5.63615 11.5201 6.00445 12.0712 6.46874 12.5355C6.93303 12.9998 7.48423 13.3681 8.09085 13.6194C8.69748 13.8707 9.34766 14 10.0043 14Z" fill="black" fill-opacity="0.65"/>
</g>
</svg>
